 <svg version="1.1" xmlns="http://www.w3.org/2000/svg" xmlns:xlink="http://www.w3.org/1999/xlink">

<symbol id="web" viewBox="0 0 23 24">
    <g id="#7-Organization-Profile" stroke="none" stroke-width="1" fill="none" fill-rule="evenodd">
        <g id="Protected---Profile---S-" transform="translate(-19.000000, -1310.000000)">
            <rect fill="#F8F8F8" x="0" y="0" width="336" height="2771"></rect>
            <g id="Profil" transform="translate(0.000000, 81.000000)">
                <rect id="Rectangle-7" fill="#5A4D99" fill-rule="nonzero" x="0" y="37" width="337" height="1439"></rect>
                <g id="SocialMedia/Links" transform="translate(18.000000, 1229.000000)" fill="#ffffff">
                    <g transform="translate(1.000000, 0.000000)" id="Icons/barbecue/solid">
                        <g>
                            <path d="M11.8836421,17.077117 L15.6102398,17.077117 C15.1515127,18.2044125 14.5403746,19.2646628 13.7820553,20.2251248 C13.1746527,20.4075502 12.5388599,20.5151345 11.8836421,20.5463183 L11.8836421,17.077117 Z M11.8836421,12.3808322 L16.5799919,12.3808322 C16.5441305,13.7349901 16.3080429,15.0501682 15.8896599,16.2975215 L11.8836421,16.2975215 L11.8836421,12.3808322 Z M11.8836421,7.67441297 L15.8694877,7.67441297 C16.2953419,8.92410493 16.5366593,10.2424013 16.5777505,11.6012367 L11.8836421,11.6012367 L11.8836421,7.67441297 Z M11.8836421,3.45368135 C12.5269061,3.48486518 13.149998,3.58855142 13.7469409,3.76551966 C14.5075016,4.7205245 15.120881,5.774538 15.5840908,6.89559674 L11.8836421,6.89559674 L11.8836421,3.45368135 Z M18.0928956,6.89559674 L16.3954557,6.89559674 C16.0428185,5.97957172 15.5938038,5.10486527 15.0543885,4.28395092 C16.2594812,4.88891724 17.3002091,5.78779116 18.0928956,6.89559674 Z M18.590472,7.67441297 C19.2464369,8.83756981 19.6439008,10.1730173 19.7074053,11.6012367 L17.3248633,11.6012367 C17.2867605,10.2470789 17.0626267,8.92878251 16.6629215,7.67441297 L18.590472,7.67441297 Z M18.6069092,16.2975215 L16.6823472,16.2975215 C17.0760756,15.0454906 17.2934853,13.7303125 17.3271054,12.3808322 L19.7089003,12.3808322 C19.6483842,13.8035945 19.2568972,15.1359237 18.6069092,16.2975215 Z M15.0880086,19.6988976 C15.6244355,18.8748649 16.0659791,17.9954808 16.4156278,17.077117 L18.1130678,17.077117 C17.3248639,18.1872614 16.2893658,19.0900333 15.0880086,19.6988976 Z M11.1365298,6.89559674 L7.43383962,6.89559674 C7.89704944,5.774538 8.5104289,4.7205245 9.27098955,3.76551966 C9.86867964,3.58855142 10.4925187,3.48408559 11.1365298,3.45368135 L11.1365298,6.89559674 Z M11.1365298,11.6012367 L6.44017996,11.6012367 C6.48127115,10.2431809 6.72258852,8.92410493 7.1484427,7.67441297 L11.1365298,7.67441297 L11.1365298,11.6012367 Z M11.1365298,16.2975215 L7.12827058,16.2975215 C6.70988752,15.0501682 6.47379993,13.7349901 6.43793853,12.3808322 L11.1365298,12.3808322 L11.1365298,16.2975215 Z M11.1365298,20.5463183 C10.4805649,20.5151345 9.84402489,20.4083298 9.2358752,20.2251248 C8.47755587,19.2646628 7.86641773,18.2044125 7.40694346,17.077117 L11.1365298,17.077117 L11.1365298,20.5463183 Z M4.90486336,17.077117 L6.60230328,17.077117 C6.951952,17.9954808 7.39274846,18.8748649 7.92917533,19.6988976 C6.72856532,19.0892537 5.69306719,18.1872614 4.90486336,17.077117 Z M4.41102203,16.2975215 C3.76103409,15.1359237 3.36954711,13.8035945 3.30903099,12.3808322 L5.69082587,12.3808322 C5.72444594,13.7303125 5.94185569,15.0454906 6.33483691,16.2975215 L4.41102203,16.2975215 Z M4.42745842,7.67441297 L6.35500894,7.67441297 C5.9553037,8.92878251 5.73116992,10.2470789 5.69306718,11.6012367 L3.30977796,11.6012367 C3.37402964,10.1730173 3.77074644,8.83756981 4.42745842,7.67441297 Z M7.9635426,4.28395092 C7.42412728,5.10486527 6.9751126,5.97957172 6.62247544,6.89559674 L4.92503557,6.89559674 C5.71772206,5.78779116 6.75844994,4.88813764 7.9635426,4.28395092 Z M1.796875,12.0003898 C1.796875,17.5924302 6.14880581,22.125 11.5093386,22.125 C16.8676301,22.125 21.2218022,17.5924302 21.2218022,12.0003898 C21.2218022,6.40834937 16.8676301,1.875 11.5093386,1.875 C6.14880581,1.875 1.796875,6.40834937 1.796875,12.0003898 Z" id="Fill-1"></path>
                        </g>
                    </g>
                </g>
            </g>
        </g>
    </g>
</symbol>

<symbol id="culture" viewBox="0 0 64 64">
<defs>
  <style>
    .a {
    fill: #BFCC36;
    }
  </style>
</defs>
<title>culture_outline</title>
<rect class="a" width="64" height="64"/>
<path fill="#ffffff" d="M40.17,23.09h0l-.1-.1c-.1,0-4.4-2.7-12.2-2.7a40.29,40.29,0,0,0-6.6.6c-12,2.1-16.8,8.3-16.9,8.4v.2c0,.1,1.3,6.4,3,12.7A23.26,23.26,0,0,0,28,59.89h.3c1.2-.2,14.8-7,13.6-23.8C41.27,29.59,40.17,23.19,40.17,23.09Zm-12.5,33.8a20.3,20.3,0,0,1-17.4-15.5c-1.2-4.5-2.2-9-2.7-11.1,1.7-1.6,6.1-5,14.2-6.4a32.32,32.32,0,0,1,6.1-.6,26.83,26.83,0,0,1,9.6,1.7c.3,2.2,1,6.7,1.3,11.3A20.77,20.77,0,0,1,27.67,56.89Zm4.5-38.3a23.25,23.25,0,0,1,2.8.5.75.75,0,0,0,.4-.1,3.36,3.36,0,0,0,2-4.4c-.7-1.8-7.1.6-6.5,2.4A4,4,0,0,0,32.17,18.59Zm18.6,1.9c1.2-1.5-4.1-5.9-5.3-4.4a3.58,3.58,0,0,0,.4,4.9A3.49,3.49,0,0,0,50.77,20.49Zm-7.7,8.7c.2,1.6.4,3.3.5,5l2.9.5C46.87,32.69,45.47,30.49,43.07,29.19Zm17.3-16.1c0-.1-4.9-6.3-16.9-8.6a46.15,46.15,0,0,0-7-.6c-7.6,0-11.8,2.6-11.8,2.6l-.1.1c0,.1-.9,5.9-1.6,12l3-.3c.4-3.9,1-7.8,1.3-9.8a25.63,25.63,0,0,1,9.2-1.6,34.43,34.43,0,0,1,6.3.6,29.14,29.14,0,0,1,14.3,6.6c-.5,2.2-1.4,6.6-2.7,11a20.49,20.49,0,0,1-10.6,13.2c0,1.2-.1,2.4-.2,3.5A23.87,23.87,0,0,0,57.27,26c1.8-6.2,3.1-12.6,3.1-12.7v-.2ZM20,34a3.45,3.45,0,1,0-2.8,4A3.54,3.54,0,0,0,20,34Zm9.9-5.3a3.45,3.45,0,1,0,4,2.8A3.43,3.43,0,0,0,29.87,28.69ZM18,47c.5,2.9,4.4,4.7,8.6,4s7.3-3.7,6.8-6.7Z"/>
</symbol>

<symbol id="handshake" viewBox="0 0 64 64">
<g id="Asset">
        <rect fill="#1A587A" class="cls-1" width="64" height="64"/>
    </g>
    <g id="Icons">
        <path fill="#ffffff" d="M56.12,33.1l6.4-3.6L52.82,12l-6.1,3.4h-7.9l-5.9-3.3L17.22,15,12,12,2.32,29.5l7.6,4.3a4.6,4.6,0,0,0-.6,6.1,4.15,4.15,0,0,0,2.6,1.7,6.31,6.31,0,0,0,.8,2.3,4.16,4.16,0,0,0,3,1.8h.9a3.1,3.1,0,0,0,.6,1.3,4.69,4.69,0,0,0,3.7,1.9,5,5,0,0,0,1.2-.2c.1.2.3.5.4.7a4.41,4.41,0,0,0,3.6,1.8,4.32,4.32,0,0,0,2.6-.9l.4-.3,5.8,3.2h0a4.65,4.65,0,0,0,2.3.6,5.9,5.9,0,0,0,1.4-.2,5.13,5.13,0,0,0,2.9-2.3,4.42,4.42,0,0,0,.5-1.5h.3a5.9,5.9,0,0,0,1.4-.2,5.13,5.13,0,0,0,2.9-2.3,5,5,0,0,0,.5-1.3c.3,0,.5.1.8.1a5.9,5.9,0,0,0,1.4-.2,5.13,5.13,0,0,0,2.9-2.3,4.42,4.42,0,0,0,.5-1.5h.2a5.11,5.11,0,0,0,4.4-2.5A4.73,4.73,0,0,0,56.12,33.1Zm-8.6-14.6,4.2-2.3,6.8,12.2-5.4,3-12.3-6.8-.7.4-7,3.7a7.4,7.4,0,0,1-3.6.9c-2.4,0-4.4-1-5.1-2l-.1-.1a13.49,13.49,0,0,0,4.2-1.5c2.2-1.2,7.5-5.9,9.1-7.4ZM13.12,38.9h0a1.91,1.91,0,0,1-1.4-.7,1.75,1.75,0,0,1,.4-2.4l3.3-2.4a1.69,1.69,0,0,1,1-.3,1.91,1.91,0,0,1,1.4.7,1.75,1.75,0,0,1-.4,2.4l-3.3,2.4A1.93,1.93,0,0,1,13.12,38.9Zm4.4,3.7a1.69,1.69,0,0,1-1,.3,1.91,1.91,0,0,1-1.4-.7,1.52,1.52,0,0,1-.3-1.3,1.9,1.9,0,0,1,.7-1.1l4.3-3.1a1.69,1.69,0,0,1,1-.3,1.91,1.91,0,0,1,1.4.7,1.75,1.75,0,0,1-.4,2.4ZM22,45.8a1.69,1.69,0,0,1-1,.3h0a1.91,1.91,0,0,1-1.4-.7A1.75,1.75,0,0,1,20,43l3.3-2.4a1.69,1.69,0,0,1,1-.3,1.91,1.91,0,0,1,1.4.7,1.75,1.75,0,0,1-.4,2.4Zm5.1,2.4a1.61,1.61,0,0,1-.9.3,1.31,1.31,0,0,1-1.2-.6,1.55,1.55,0,0,1,.3-2.1l2.1-1.5a1.61,1.61,0,0,1,.9-.3,1.31,1.31,0,0,1,1.2.6,1.55,1.55,0,0,1-.3,2.1Zm27.8-10a1.91,1.91,0,0,1-2.3.9h0l-2.4-1.4h0l-8.9-4.9-1,1.8,8.9,4.9h0a2.16,2.16,0,0,1,.7,2.7,1.86,1.86,0,0,1-1.2.9,2.2,2.2,0,0,1-1.4-.1h0l-3.5-1.9h0l-5.4-3-1,1.8,6.2,3.5h0a1.71,1.71,0,0,1,.8,1.2,1.94,1.94,0,0,1-.2,1.5A1.86,1.86,0,0,1,43,47a2.44,2.44,0,0,1-1.2,0h0l-3.3-2h0l-3.1-1.7-1,1.8,4,2.2h0a2.16,2.16,0,0,1,.7,2.7,1.86,1.86,0,0,1-1.2.9,1.69,1.69,0,0,1-1.4-.1h0l-4.7-2.6h0a4.49,4.49,0,0,0,.1-5.4A4.29,4.29,0,0,0,29,41h-.3a3.81,3.81,0,0,0-.8-1.7,4.43,4.43,0,0,0-2.6-1.7,6.31,6.31,0,0,0-.8-2.3,4.6,4.6,0,0,0-3.8-1.9A3.69,3.69,0,0,0,20,32a4.53,4.53,0,0,0-6.4-1l-1,.7-6.2-3.3,6.8-12.2,3.5,2,15.6-2.8,2.6,1.5c-2.3,2.1-6.4,5.7-8,6.5a22.55,22.55,0,0,1-5.6,1.7L21,26a3.82,3.82,0,0,0,.8,3.5c1.5,2,4.4,3.2,7.5,3.2a11.25,11.25,0,0,0,5.1-1.2c2.5-1.3,5.1-2.7,6.3-3.3L53.12,35h0l1.2.7h0C55.12,35.9,55.42,37.3,54.92,38.2Z"/>
    </g>
</symbol>


<symbol id="in" viewBox="0 0 23 24">
    <defs>
        <path d="M20.1250007,12.1853464 L20.1250007,19.8749993 L15.8115614,19.8749993 L15.8115614,12.700353 C15.8115614,10.8980233 15.187669,9.66800385 13.6263469,9.66800385 C12.4344756,9.66800385 11.7251921,10.4969469 11.4131523,11.2988097 C11.29936,11.5854725 11.2700697,11.9844696 11.2700697,12.3857396 L11.2700697,19.8749993 L6.95517996,19.8749993 C6.95517996,19.8749993 7.01329264,7.72350337 6.95517996,6.46451777 L11.2696486,6.46451777 L11.2696486,8.36539985 C11.2608989,8.37961693 11.2495291,8.39494624 11.2412941,8.4087281 L11.2696486,8.4087281 L11.2696486,8.36539985 C11.8428679,7.45294357 12.8665775,6.14946914 15.1579576,6.14946914 C17.9968227,6.14942078 20.1250007,8.06616409 20.1250007,12.1853464 Z M2.44162133,0 C0.965503252,0 0,1.00066029 0,2.31656266 C0,3.60378908 0.937569865,4.63481784 2.38435087,4.63481784 L2.41317326,4.63481784 C3.91787978,4.63481784 4.85367164,3.60398251 4.85367164,2.31656266 C4.82531715,1.00066029 3.91787978,0 2.44162133,0 Z M0.256266613,19.8750007 L4.56951855,19.8750007 L4.56951855,6.46451783 L0.256266613,6.46451783 L0.256266613,19.8750007 Z" id="path-1"></path>
    </defs>
    <g id="#7-Organization-Profile" stroke="none" stroke-width="1" fill="none" fill-rule="evenodd">
        <g id="Protected---Profile---S-" transform="translate(-19.000000, -1346.000000)">
            <rect fill="#F8F8F8" x="0" y="0" width="336" height="2771"></rect>
            <g id="Profil" transform="translate(0.000000, 81.000000)">
                <rect id="Rectangle-7" fill="#FFFFFF" fill-rule="nonzero" x="0" y="37" width="337" height="1439"></rect>
                <g id="SocialMedia/Links-Copy-4" transform="translate(18.000000, 1265.000000)">
                    <g id="SocialMedia/Links" transform="translate(1.000000, 0.000000)">
                        <g id="Icons/barbecue/solid">
                            <g id="-↳-icon🎨" transform="translate(1.796875, 2.250000)">
                                <mask id="mask-2" fill="white">
                                    <use xlink:href="#path-1"></use>
                                </mask>
                                <use id="Mask" fill="#000000" fill-rule="nonzero" xlink:href="#path-1"></use>
                                <g mask="url(#mask-2)" fill="#262626" id="Rectangle-2">
                                    <g transform="translate(-1.847187, -2.295000)">
                                        <rect x="0" y="0" width="23.4599996" height="24.4799995"></rect>
                                    </g>
                                </g>
                            </g>
                        </g>
                    </g>
                </g>
            </g>
        </g>
    </g>
</symbol>
</svg>